<?xml version="1.0" encoding="UTF-8"?>
<svg version="1.1" xmlns="http://www.w3.org/2000/svg" width="128" height="128">
<path d="M0 0 C0.70657745 -0.00671722 1.41315491 -0.01343445 2.1411438 -0.02035522 C4.46298376 -0.03925733 6.78453333 -0.04325574 9.10644531 -0.04541016 C10.73301305 -0.05184462 12.35957965 -0.05857346 13.98614502 -0.06558228 C17.39215779 -0.07753639 20.7980693 -0.08126514 24.20410156 -0.08007812 C28.54597984 -0.0798753 32.88720092 -0.10714765 37.2289238 -0.14162254 C40.58863239 -0.16397963 43.94818518 -0.16791295 47.30796051 -0.16685867 C48.90738433 -0.16920254 50.50681324 -0.17795685 52.10616302 -0.19352341 C65.40265168 -0.31080145 74.59543301 1.46423673 84.48535156 10.91943359 C90.98088206 17.92260769 93.9174143 24.98815345 93.97509766 34.60595703 C93.98181488 35.31253448 93.9885321 36.01911194 93.99545288 36.74710083 C94.01435498 39.06894079 94.0183534 41.39049036 94.02050781 43.71240234 C94.02694228 45.33897008 94.03367111 46.96553668 94.04067993 48.59210205 C94.05263405 51.99811483 94.0563628 55.40402633 94.05517578 58.81005859 C94.05497296 63.15193687 94.0822453 67.49315795 94.1167202 71.83488083 C94.13907729 75.19458942 94.14301061 78.55414221 94.14195633 81.91391754 C94.1443002 83.51334136 94.15305451 85.11277027 94.16862106 86.71212006 C94.28589911 100.00860871 92.51086092 109.20139004 83.05566406 119.09130859 C76.05248997 125.5868391 68.98694421 128.52337134 59.36914062 128.58105469 C58.66256317 128.58777191 57.95598572 128.59448914 57.22799683 128.60140991 C54.90615687 128.62031202 52.5846073 128.62431043 50.26269531 128.62646484 C48.63612757 128.63289931 47.00956097 128.63962814 45.38299561 128.64663696 C41.97698283 128.65859108 38.57107132 128.66231983 35.16503906 128.66113281 C30.82316078 128.66092999 26.4819397 128.68820233 22.14021683 128.72267723 C18.78050824 128.74503432 15.42095544 128.74896764 12.06118011 128.74791336 C10.4617563 128.75025723 8.86232738 128.75901154 7.2629776 128.77457809 C-6.03351106 128.89185614 -15.22629238 127.11681795 -25.11621094 117.66162109 C-31.61174144 110.658447 -34.54827368 103.59290124 -34.60595703 93.97509766 C-34.61267426 93.2685202 -34.61939148 92.56194275 -34.62631226 91.83395386 C-34.64521436 89.5121139 -34.64921277 87.19056433 -34.65136719 84.86865234 C-34.65780165 83.2420846 -34.66453049 81.615518 -34.67153931 79.98895264 C-34.68349343 76.58293986 -34.68722217 73.17702836 -34.68603516 69.77099609 C-34.68583233 65.42911781 -34.71310468 61.08789674 -34.74757957 56.74617386 C-34.76993666 53.38646527 -34.77386998 50.02691247 -34.7728157 46.66713715 C-34.77515957 45.06771333 -34.78391388 43.46828441 -34.79948044 41.86893463 C-34.91675848 28.57244597 -33.1417203 19.37966465 -23.68652344 9.48974609 C-16.68334934 2.99421559 -9.61780358 0.05768335 0 0 Z M-19.13964844 18.28662109 C-26.56714702 27.80029361 -26.47220014 37.22536949 -26.48339844 48.87255859 C-26.48672684 50.08191574 -26.49005524 51.29127289 -26.4934845 52.53727722 C-26.49853519 55.08987041 -26.5008934 57.64247018 -26.50073242 60.19506836 C-26.5029163 64.07921345 -26.52108505 67.96307315 -26.54003906 71.84716797 C-26.54297397 74.33479721 -26.54495811 76.8224278 -26.54589844 79.31005859 C-26.55308395 80.461418 -26.56026947 81.6127774 -26.56767273 82.79902649 C-26.53715782 93.68745694 -25.66207854 102.84591779 -18.31542969 111.29052734 C-8.46916047 120.2889769 1.50141887 120.44622289 14.26660156 120.45849609 C16.08063728 120.46348869 16.08063728 120.46348869 17.93132019 120.46858215 C20.48391338 120.47363284 23.03651314 120.47599105 25.58911133 120.47583008 C29.47325642 120.47801395 33.35711612 120.49618271 37.24121094 120.51513672 C39.72884018 120.51807163 42.21647077 120.52005577 44.70410156 120.52099609 C46.43114067 120.53177437 46.43114067 120.53177437 48.19306946 120.54277039 C59.08149991 120.51225547 68.23996076 119.63717619 76.68457031 112.29052734 C85.68301987 102.44425813 85.84026586 92.47367878 85.85253906 79.70849609 C85.85586746 78.49913895 85.85919586 77.2897818 85.86262512 76.04377747 C85.86767581 73.49118427 85.87003402 70.93858451 85.86987305 68.38598633 C85.87205692 64.50184124 85.89022568 60.61798154 85.90917969 56.73388672 C85.91211459 54.24625747 85.91409874 51.75862689 85.91503906 49.27099609 C85.92581734 47.54395699 85.92581734 47.54395699 85.93681335 45.7820282 C85.90629844 34.89359775 85.03121916 25.7351369 77.68457031 17.29052734 C67.8383011 8.29207779 57.86772175 8.13483179 45.10253906 8.12255859 C43.28850334 8.11756599 43.28850334 8.11756599 41.43782043 8.11247253 C38.88522724 8.10742185 36.33262748 8.10506363 33.7800293 8.10522461 C29.8958842 8.10304073 26.0120245 8.08487198 22.12792969 8.06591797 C19.64030044 8.06298306 17.15266986 8.06099892 14.66503906 8.06005859 C12.93799995 8.04928032 12.93799995 8.04928032 11.17607117 8.0382843 C-0.63975933 8.07139826 -10.8062253 9.16803604 -19.13964844 18.28662109 Z " fill="#000000" transform="translate(34.3154296875,-0.29052734375)"/>
<path d="M0 0 C8.34468007 4.97590182 13.53387008 11.86345977 16.109375 21.2578125 C17.10789012 32.35758522 16.45884702 41.9922991 9.359375 51.0703125 C3.70168013 57.1280464 -3.34488592 60.84888618 -11.625 61.59375 C-22.35447774 61.83515993 -31.19802606 60.58332943 -39.359375 52.9609375 C-46.75303791 44.73737365 -48.47252567 36.02335615 -48.203125 25.24609375 C-47.72879865 16.86039919 -44.11592977 9.8548755 -37.890625 4.2578125 C-27.15195714 -3.81766573 -12.32399863 -5.91386512 0 0 Z M-34.8359375 14.42578125 C-39.44449587 20.99565633 -40.06312254 27.42111954 -38.890625 35.2578125 C-36.81779616 42.07950317 -32.42770711 46.94592313 -26.328125 50.5703125 C-20.42115347 53.30605546 -13.82282723 53.32598289 -7.58984375 51.6328125 C-1.44917407 48.96191928 3.35280809 43.84120901 6.28125 37.8671875 C8.22297114 31.74893409 8.1691941 24.67087868 5.421875 18.8203125 C2.11685423 13.23875645 -2.61529721 8.29567668 -8.890625 6.2578125 C-19.4665741 4.75247668 -27.58141748 6.3409246 -34.8359375 14.42578125 Z " fill="#000000" transform="translate(79.890625,34.7421875)"/>
<path d="M0 0 C2.5 1.5 2.5 1.5 4 4 C4.791013 8.02098277 4.62153384 10.96411027 2.5 14.5 C-1.03588973 16.62153384 -3.97901723 16.791013 -8 16 C-10.5 14.5 -10.5 14.5 -12 12 C-12.791013 7.97901723 -12.62153384 5.03588973 -10.5 1.5 C-6.96411027 -0.62153384 -4.02098277 -0.791013 0 0 Z " fill="#000000" transform="translate(100,20)"/>
</svg>
