<?xml version="1.0" encoding="UTF-8"?>
<svg version="1.1" xmlns="http://www.w3.org/2000/svg" width="128" height="128">
<path d="M0 0 C1.11503906 0.00322266 2.23007812 0.00644531 3.37890625 0.00976562 C4.53777344 0.01814453 5.69664063 0.02652344 6.890625 0.03515625 C8.06496094 0.03966797 9.23929688 0.04417969 10.44921875 0.04882812 C13.34637595 0.06060519 16.24350693 0.07854037 19.140625 0.09765625 C19.140625 6.69765625 19.140625 13.29765625 19.140625 20.09765625 C16.8925 20.20078125 14.644375 20.30390625 12.328125 20.41015625 C7.48279406 20.47564536 7.48279406 20.47564536 3.25390625 22.453125 C1.37268625 25.23204999 0.9958712 27.84797839 0.82421875 31.109375 C0.78611084 31.79217529 0.74800293 32.47497559 0.70874023 33.1784668 C0.66563721 34.03867432 0.62253418 34.89888184 0.578125 35.78515625 C0.43375 38.52828125 0.289375 41.27140625 0.140625 44.09765625 C6.740625 44.09765625 13.340625 44.09765625 20.140625 44.09765625 C20.140625 50.68438532 19.98732011 56.76399277 19.140625 63.22265625 C18.645625 67.12078125 18.645625 67.12078125 18.140625 71.09765625 C12.200625 71.09765625 6.260625 71.09765625 0.140625 71.09765625 C0.140625 89.90765625 0.140625 108.71765625 0.140625 128.09765625 C-8.439375 128.09765625 -17.019375 128.09765625 -25.859375 128.09765625 C-25.859375 109.28765625 -25.859375 90.47765625 -25.859375 71.09765625 C-31.799375 71.09765625 -37.739375 71.09765625 -43.859375 71.09765625 C-43.859375 62.18765625 -43.859375 53.27765625 -43.859375 44.09765625 C-37.919375 44.09765625 -31.979375 44.09765625 -25.859375 44.09765625 C-25.92125 41.21015625 -25.983125 38.32265625 -26.046875 35.34765625 C-26.11180744 25.59780075 -25.78040519 15.49163761 -19.3828125 7.5625 C-13.59904017 2.00118045 -7.90982364 -0.04035624 0 0 Z " fill="#000000" transform="translate(43.859375,-0.09765625)"/>
</svg>
