<?xml version="1.0" encoding="UTF-8"?>
<svg version="1.1" xmlns="http://www.w3.org/2000/svg" width="128" height="128">
<path d="M0 0 C42.24 0 84.48 0 128 0 C128 42.24 128 84.48 128 128 C85.76 128 43.52 128 0 128 C0 85.76 0 43.52 0 0 Z " fill="#010101" transform="translate(0,0)"/>
<path d="M0 0 C5.27643011 3.15451091 8.59598746 8.85046239 10.5 14.5625 C10.58687799 16.11220448 10.6176866 17.66539707 10.61352539 19.2175293 C10.61344986 20.15827805 10.61337433 21.09902679 10.61329651 22.06828308 C10.60813522 23.08086685 10.60297394 24.09345062 10.59765625 25.13671875 C10.5962413 26.17568802 10.59482635 27.21465729 10.59336853 28.28511047 C10.58776656 31.60676948 10.57521372 34.92836133 10.5625 38.25 C10.55748525 40.50065007 10.5529223 42.75130119 10.54882812 45.00195312 C10.53779648 50.52216133 10.52053051 56.04231928 10.5 61.5625 C4.23 61.5625 -2.04 61.5625 -8.5 61.5625 C-8.54898438 58.79359375 -8.59796875 56.0246875 -8.6484375 53.171875 C-8.7024602 50.48773838 -8.75976263 47.80369042 -8.81738281 45.11962891 C-8.8556459 43.25543838 -8.89050346 41.3911747 -8.921875 39.52685547 C-8.96758356 36.84576284 -9.02556822 34.16517267 -9.0859375 31.484375 C-9.09748871 30.65194275 -9.10903992 29.8195105 -9.12094116 28.96185303 C-9.19567312 23.46252037 -9.19567312 23.46252037 -11.5 18.5625 C-14.93384607 16.01891032 -18.35511944 16.2664371 -22.5 16.5625 C-25.65071171 17.4376977 -26.33795245 18.30120741 -28.07739258 21.10595703 C-29.81042652 25.31675066 -29.97475685 28.73982628 -30.01171875 33.2421875 C-30.02966995 34.05495148 -30.04762115 34.86771545 -30.06611633 35.70510864 C-30.11998358 38.2825208 -30.15403836 40.8597503 -30.1875 43.4375 C-30.22069399 45.19273362 -30.25518557 46.94794321 -30.29101562 48.703125 C-30.37812276 52.98960617 -30.43838972 57.27527436 -30.5 61.5625 C-36.44 61.5625 -42.38 61.5625 -48.5 61.5625 C-48.5 41.4325 -48.5 21.3025 -48.5 0.5625 C-42.56 0.5625 -36.62 0.5625 -30.5 0.5625 C-30.17 2.5425 -29.84 4.5225 -29.5 6.5625 C-29.04109375 6.15257812 -28.5821875 5.74265625 -28.109375 5.3203125 C-27.49578125 4.78148437 -26.8821875 4.24265625 -26.25 3.6875 C-25.64671875 3.15382813 -25.0434375 2.62015625 -24.421875 2.0703125 C-17.81359464 -3.11423266 -7.65583205 -3.24927756 0 0 Z " fill="#FDFDFD" transform="translate(99.5,48.4375)"/>
<path d="M0 0 C6.27 0 12.54 0 19 0 C19 20.46 19 40.92 19 62 C12.73 62 6.46 62 0 62 C0 41.54 0 21.08 0 0 Z " fill="#F8F8F8" transform="translate(20,48)"/>
<path d="M0 0 C3.62342508 1.6470114 6.16816086 3.4327343 8 7 C8.5104392 12.35961156 8.4594433 15.64366399 5 20 C0.7741215 22.81725233 -3.03624688 22.79958384 -8 22 C-10.82424288 19.80977082 -12.41508603 18.16982793 -14 15 C-14.68128376 8.18716238 -14.68128376 8.18716238 -12.953125 5.17578125 C-8.85782021 0.20119044 -6.33896965 -0.42976065 0 0 Z " fill="#FBFBFB" transform="translate(32,18)"/>
</svg>
