<?xml version="1.0" encoding="UTF-8"?>
<svg version="1.1" xmlns="http://www.w3.org/2000/svg" width="1080" height="1080">
<path d="M0 0 C2.07533874 -0.01398708 4.15070484 -0.02395238 6.22607422 -0.03222656 C7.95964676 -0.04119965 7.95964676 -0.04119965 9.72824097 -0.050354 C22.9336996 0.15288459 36.46116928 3.84918203 47.02734375 11.828125 C52.16821295 17.48817109 53.59387221 23.35727203 53.54589844 30.82958984 C53.55623328 31.68380209 53.56656813 32.53801434 53.57721615 33.4181118 C53.60677812 36.2659112 53.60814519 39.11299556 53.609375 41.9609375 C53.62450554 44.0160648 53.64129918 46.07118042 53.65962219 48.12628174 C53.70417435 53.71053736 53.72371119 59.29463227 53.73842239 64.87903595 C53.75389614 69.55147509 53.78405258 74.2237695 53.81448841 78.89613152 C53.92077539 95.26399416 53.96822604 111.63184321 54 128 C54.00196428 128.9907723 54.00196428 128.9907723 54.00396824 130.00156021 C54.07774501 167.33441021 54.0695009 204.66714385 54 242 C50.88169909 241.52059363 48.09193879 241.03397738 45.125 239.9375 C41.2411218 238.77233654 38.04440599 238.93145075 34 239 C33.67 238.67 33.34 238.34 33 238 C22.71490028 237.03626562 12.72301494 238.50912137 2.5625 240 C-23.65918428 243.73756478 -54.47938163 245.36840737 -76.9375 228.5625 C-78.31107537 227.39750459 -79.66657787 226.2107473 -81 225 C-81.62390625 224.45601562 -82.2478125 223.91203125 -82.890625 223.3515625 C-92.40158277 214.54358857 -97.5980256 202.54894455 -98.14044189 189.66378784 C-98.1472699 188.4519986 -98.1540979 187.24020935 -98.16113281 185.99169922 C-98.16609772 185.31759506 -98.17106262 184.64349091 -98.17617798 183.94895935 C-98.19069733 181.73419138 -98.1975859 179.51949512 -98.203125 177.3046875 C-98.20595238 176.54185581 -98.20877975 175.77902412 -98.21169281 174.99307632 C-98.2266472 170.95273752 -98.23589919 166.91243404 -98.24023438 162.87207031 C-98.24570051 158.73005343 -98.26969977 154.58836833 -98.29820633 150.446455 C-98.31697407 147.23423364 -98.32204585 144.02208979 -98.32357025 140.80981827 C-98.32656766 139.28462036 -98.33449571 137.75942284 -98.34775543 136.23427963 C-98.49516068 117.96997286 -94.71304763 103.96599251 -81.75390625 90.6953125 C-67.09141376 76.34478794 -47.84864363 71.37891161 -27.81201172 71.59326172 C-21.19843125 71.78952074 -15.16872589 72.46869524 -9 75 C-8.14921875 75.34804688 -7.2984375 75.69609375 -6.421875 76.0546875 C-3.56756299 77.28437538 -0.77918514 78.61040743 2 80 C1.67468292 78.83505005 1.34936584 77.6701001 1.01419067 76.46984863 C0.00632521 72.42038805 -0.2417909 68.66861632 -0.22705078 64.48242188 C-0.22734283 63.77899658 -0.22763489 63.07557129 -0.22793579 62.35083008 C-0.22655732 60.05667195 -0.21106727 57.76285044 -0.1953125 55.46875 C-0.19157708 53.86592791 -0.18873261 52.26310352 -0.18673706 50.66027832 C-0.17914225 46.46485972 -0.15952997 42.26958209 -0.1373291 38.07421875 C-0.11678069 33.78387356 -0.1077162 29.49350534 -0.09765625 25.203125 C-0.0762797 16.80201902 -0.04219458 8.4010271 0 0 Z M-40 115 C-44.9584761 122.25925567 -44.5717124 130.35883688 -44.49609375 138.81640625 C-44.49624907 140.24169488 -44.49774352 141.66698393 -44.50050354 143.0922699 C-44.50188074 146.06520484 -44.48944345 149.03765335 -44.46655273 152.01049805 C-44.43814357 155.80205236 -44.44092134 159.59280147 -44.45364285 163.38441563 C-44.46062984 166.32287862 -44.45277697 169.2611587 -44.44038582 172.19959831 C-44.4359024 173.59689569 -44.43550702 174.99421291 -44.43945122 176.39151192 C-44.45278983 185.27112027 -44.39883326 192.50154421 -38.875 199.8125 C-32.43239034 204.71448561 -25.32225774 205.4546328 -17.4375 205.25 C-16.63892578 205.24484375 -15.84035156 205.2396875 -15.01757812 205.234375 C-11.24896378 205.18523251 -7.5822583 204.96659381 -3.84315491 204.4899292 C-2.57491379 204.32825256 -1.30667267 204.16657593 0 204 C0.09287433 193.96830868 0.16385329 183.93672044 0.20724869 173.90468597 C0.22808137 169.24587262 0.25631961 164.58735444 0.30175781 159.92871094 C0.3453703 155.42884946 0.36916957 150.92927107 0.37950897 146.42921448 C0.38687279 144.71647183 0.40125255 143.00374385 0.42292023 141.29112244 C0.79198971 129.02216523 0.79198971 129.02216523 -4 118 C-6.04397932 115.93416715 -6.04397932 115.93416715 -8.375 114.625 C-9.10460937 114.16351562 -9.83421875 113.70203125 -10.5859375 113.2265625 C-19.95590804 108.4657684 -32.0386167 107.1739624 -40 115 Z " fill="#234C18" transform="translate(884,412)"/>
<path d="M0 0 C10.56526236 9.80834804 15.53680779 22.83745422 16.2734375 37.08203125 C16.76193658 53.2297342 13.51146327 66.49257136 2.28125 78.54296875 C-11.38432144 91.29905677 -29.44709297 94.04300122 -47.4453125 93.9921875 C-48.58291016 94.00830078 -49.72050781 94.02441406 -50.89257812 94.04101562 C-58.67045213 94.04545252 -65.5623878 92.91610726 -73.0078125 90.6796875 C-72.76595529 98.06257387 -72.29064822 104.12088275 -67.0078125 109.6796875 C-56.92846522 117.18320158 -42.92971289 116.36544087 -31.1328125 114.9921875 C-19.51554564 113.17261558 -6.65880126 108.89129079 0.9296875 99.3671875 C3.47108552 95.45869261 4.29975674 91.23732877 4.9921875 86.6796875 C5.9821875 86.6796875 6.9721875 86.6796875 7.9921875 86.6796875 C15.0541972 94.85588899 19.92592553 106.65747977 19.30859375 117.5703125 C17.63843926 128.70467575 11.72106546 137.13214742 2.82421875 143.828125 C-12.44763596 153.81275829 -29.04496943 155.91416489 -46.8828125 155.9296875 C-47.57689209 155.93036224 -48.27097168 155.93103699 -48.98608398 155.93173218 C-72.64478056 155.89517967 -94.98991521 151.66463472 -112.75390625 134.95703125 C-122.19074297 125.42206451 -127.06317667 113.99435254 -127.20068359 100.57299805 C-127.20886108 99.87620438 -127.21703857 99.17941071 -127.22546387 98.46150208 C-127.25019844 96.16314514 -127.26681315 93.86485 -127.28125 91.56640625 C-127.28657368 90.7745524 -127.29189735 89.98269855 -127.29738235 89.16684914 C-127.32407657 84.96630449 -127.34345367 80.76578901 -127.35791016 76.56518555 C-127.37117767 73.11927319 -127.39890075 69.67396311 -127.43994141 66.22827148 C-127.48980335 62.040262 -127.51409663 57.85279278 -127.52113724 53.66449928 C-127.52776784 52.08395287 -127.54276981 50.50341455 -127.56702805 48.92304039 C-127.78770396 33.66212053 -125.26053608 19.61247923 -115.0078125 7.6796875 C-114.43546875 6.98617188 -113.863125 6.29265625 -113.2734375 5.578125 C-87.96112216 -22.43849753 -28.76927356 -22.1934396 0 0 Z M-69.0078125 27.6796875 C-74.44225663 35.44696618 -74.3733785 45.49991902 -74.0078125 54.6796875 C-63.47154487 56.92315133 -53.09240791 58.48953886 -43.0078125 53.6796875 C-40.2973235 51.46031922 -38.56129972 48.99954163 -37.1953125 45.7421875 C-36.6736599 40.00400889 -36.81253536 35.06809502 -39.0078125 29.6796875 C-42.46219472 25.83928549 -45.92371042 23.83939884 -51.1171875 23.44140625 C-60.81510375 23.16802975 -60.81510375 23.16802975 -69.0078125 27.6796875 Z " fill="#224C18" transform="translate(561.0078125,498.3203125)"/>
<path d="M0 0 C5.31374579 1.02466429 10.43400832 2.54100244 15.625 4.0625 C29.11932528 7.81092369 42.57465191 6.58409214 56.0625 3.5 C80.76788786 -2.0340376 106.90130083 -0.75963612 129.3125 11.8125 C140.16564183 18.74303141 147.22855588 28.74919081 150.42166138 41.262146 C153.25448224 54.67271486 152.14581112 69.11736918 152.1328125 82.734375 C152.13348688 85.22446706 152.13445803 87.71455905 152.13571167 90.20465088 C152.13717904 95.39555495 152.1350629 100.58644171 152.13037109 105.77734375 C152.12578343 111.1139447 152.12555765 116.45051101 152.13037109 121.78710938 C152.13614728 128.24705872 152.13708782 134.70698775 152.13381577 141.16693878 C152.13314712 143.6278509 152.13397277 146.08876388 152.13629532 148.54967499 C152.13881843 151.97031496 152.13498774 155.39088846 152.12939453 158.81152344 C152.13141876 159.83478729 152.13344299 160.85805115 152.13552856 161.912323 C152.13270874 162.83729584 152.12988892 163.76226868 152.12698364 164.715271 C152.1264181 165.92745111 152.1264181 165.92745111 152.12584114 167.16411972 C152 169 152 169 151 170 C135.24289954 170.09561347 115.16994683 168.19206733 102.96875 157.1640625 C99.53927361 153.33016672 97.88094756 150.22978747 97.86196899 144.99711609 C97.85651566 144.18549011 97.85106232 143.37386414 97.84544373 142.53764343 C97.8444014 141.65083389 97.84335907 140.76402435 97.84228516 139.8503418 C97.83720444 138.91344513 97.83212372 137.97654846 97.82688904 137.01126099 C97.81618288 134.97491582 97.80756366 132.93855886 97.80076981 130.90219688 C97.7889863 127.67837236 97.76953459 124.45468212 97.74765015 121.23091125 C97.68601677 112.06422394 97.63199079 102.89755014 97.59863281 93.73071289 C97.57768363 88.12504808 97.54237748 82.51962769 97.49787521 76.91410255 C97.48371633 74.77832733 97.47499303 72.64250887 97.47182083 70.50668907 C97.46691029 67.51681332 97.44374789 64.52758576 97.41650391 61.5378418 C97.41951004 60.65710495 97.42251617 59.7763681 97.4256134 58.86894226 C97.34202796 52.68961459 96.2527169 48.38522966 91.875 43.75 C80.82369575 37.02311915 65.21311059 40.64298771 53 42 C53.10597 43.17298141 53.10597 43.17298141 53.21408081 44.36965942 C54.23017348 57.21540745 54.1451611 70.0508851 54.1328125 82.9296875 C54.13348712 85.41692108 54.13445846 87.90415459 54.13571167 90.39138794 C54.13717737 95.57033931 54.135068 100.74927332 54.13037109 105.92822266 C54.12577953 111.25115176 54.12556226 116.57404614 54.13037109 121.89697266 C54.13614677 128.34625993 54.13708837 134.79552686 54.13381577 141.24481583 C54.13314726 143.70014577 54.13397226 146.15547658 54.13629532 148.61080551 C54.13881811 152.02164814 54.13498849 155.4324241 54.12939453 158.84326172 C54.13141876 159.86338348 54.13344299 160.88350525 54.13552856 161.93453979 C54.13270874 162.85662231 54.12988892 163.77870483 54.12698364 164.72872925 C54.12660662 165.53425169 54.12622959 166.33977413 54.12584114 167.16970634 C54 169 54 169 53 170 C38.21419758 170.76478288 18.18806652 168.53401297 6.48046875 158.48046875 C2.71938451 154.71938451 0.1268577 151.77961083 -0.12304783 146.30386829 C-0.12212604 145.20785644 -0.12120424 144.11184458 -0.12025452 142.98262024 C-0.12162918 141.72478729 -0.12300385 140.46695435 -0.12442017 139.17100525 C-0.12088102 137.77456641 -0.11724621 136.37812782 -0.11352539 134.98168945 C-0.11324336 133.51328534 -0.11340156 132.04488108 -0.1139679 130.57647705 C-0.11425525 126.5871002 -0.10836843 122.5977533 -0.10139394 118.60838342 C-0.09515019 114.44035509 -0.09455579 110.27232611 -0.09336853 106.10429382 C-0.09025824 98.21016798 -0.0820489 90.31605596 -0.07201904 82.42193621 C-0.06084856 73.43534061 -0.05534509 64.44874436 -0.05032361 55.46214354 C-0.03986605 36.97475452 -0.02227242 18.48737837 0 0 Z " fill="#244D19" transform="translate(606,483)"/>
<path d="M0 0 C28.71357627 24.06471154 38.71246716 62.03509335 51.97265625 95.89453125 C59.68144195 115.52319652 68.08831962 134.03920516 81.58984375 150.4453125 C83.00705136 152.3218367 84.01921698 154.18036301 85 156.3125 C85.66 156.3125 86.32 156.3125 87 156.3125 C89.625 158.6875 89.625 158.6875 92 161.3125 C92 161.9725 92 162.6325 92 163.3125 C92.55300781 163.55871094 93.10601562 163.80492187 93.67578125 164.05859375 C96.45304465 165.55691568 98.7223623 167.40358523 101.1875 169.375 C115.65801741 180.49548103 131.36575704 186.55778781 149.453125 188.91796875 C152 189.3125 152 189.3125 154 190.3125 C154 191.6325 154 192.9525 154 194.3125 C121.23198033 207.48775922 87.77319819 218.29911454 53.37036133 203.67895508 C21.86523915 189.36933634 1.79737631 158.34838919 -10.05078125 126.96484375 C-13.44988307 117.73805418 -16.64671118 108.44684583 -19.703125 99.1015625 C-28.82669728 71.21124121 -38.94348697 44.77460171 -57 21.3125 C-57.40186523 20.77898926 -57.80373047 20.24547852 -58.21777344 19.69580078 C-65.50427136 10.08713531 -73.62133995 3.38089686 -84 -2.6875 C-83.35546875 -4.55859375 -83.35546875 -4.55859375 -82 -6.6875 C-77.86234524 -8.59867179 -73.40855487 -9.56456621 -69 -10.6875 C-67.89398438 -10.99042969 -66.78796875 -11.29335938 -65.6484375 -11.60546875 C-42.42192023 -17.18927031 -19.20697011 -14.76762325 0 0 Z " fill="#224C18" transform="translate(204,442.6875)"/>
<path d="M0 0 C2.14134419 10.79244689 3.92356012 21.56902374 5.1875 32.5 C5.27371613 33.24512848 5.35993225 33.99025696 5.44876099 34.75796509 C10.74232917 81.65829693 6.27268771 133.21350923 -24.02734375 171.6640625 C-24.67832031 172.43492187 -25.32929688 173.20578125 -26 174 C-26.74378906 174.91523437 -27.48757813 175.83046875 -28.25390625 176.7734375 C-35.44565141 185.20036201 -45.63746277 194.99649553 -57.125 196.375 C-66.05675733 195.51063639 -72.64329925 192.04728522 -79.41796875 186.29296875 C-81.68713398 183.00407989 -81.4522836 180.93362246 -81 177 C-80.09837748 174.38811225 -79.16942627 172.04286557 -78 169.5625 C-77.68675781 168.87293213 -77.37351562 168.18336426 -77.05078125 167.47290039 C-74.17785291 161.21533884 -71.07878122 155.06983881 -67.97265625 148.92578125 C-59.56206661 132.24840786 -52.81928227 115.40081618 -47.625 97.4375 C-47.27896729 96.24809814 -46.93293457 95.05869629 -46.57641602 93.83325195 C-44.80057997 87.52643229 -43.48835444 81.53697301 -43 75 C-48.80601984 81.67381971 -52.43064618 88.57843417 -55.875 96.6875 C-56.39255859 97.87939941 -56.91011719 99.07129883 -57.44335938 100.29931641 C-61.68805035 110.12533004 -65.75740186 120.02119056 -69.76367188 129.94628906 C-71.97711416 135.41345655 -74.21301836 140.87128733 -76.45874023 146.32525635 C-77.22615698 148.19200173 -77.98912715 150.06057317 -78.75195312 151.92919922 C-80.13970338 155.2991163 -81.55595752 158.6538475 -83 162 C-83.42732422 162.99322266 -83.85464844 163.98644531 -84.29492188 165.00976562 C-84.70806641 165.90888672 -85.12121094 166.80800781 -85.546875 167.734375 C-85.90104492 168.51522461 -86.25521484 169.29607422 -86.62011719 170.10058594 C-88.43514296 172.59897598 -90.05148332 173.20867335 -93 174 C-102.5371165 169.52170182 -108.47878963 159.49711067 -112 150 C-118.36181038 131.86884042 -111.69601099 110.86774197 -104.03710938 94.15087891 C-85.1432541 54.96658865 -58.08700733 26.16324734 -19 7 C-18.26313965 6.63438965 -17.5262793 6.2687793 -16.76708984 5.89208984 C-4.8401206 0 -4.8401206 0 0 0 Z " fill="#A2A525" transform="translate(413,418)"/>
<path d="M0 0 C3.77030978 0.30051565 3.77030978 0.30051565 5.95703125 -0.98828125 C8.3686654 -2.18257044 10.0131023 -2.23612541 12.6875 -2.1875 C13.86892578 -2.17783203 13.86892578 -2.17783203 15.07421875 -2.16796875 C17 -2 17 -2 18 -1 C18.10956895 0.823673 18.14909817 2.65159369 18.16113281 4.47851562 C18.17074036 5.65063599 18.1803479 6.82275635 18.19024658 8.03039551 C18.19449646 9.30942749 18.19874634 10.58845947 18.203125 11.90625 C18.20882507 13.21525269 18.21452515 14.52425537 18.22039795 15.8729248 C18.23092422 18.65389393 18.23675445 21.43483405 18.24023438 24.21582031 C18.24568568 27.75856574 18.26963336 31.30092028 18.29820633 34.84354401 C18.32147404 38.2394375 18.32329365 41.63528102 18.328125 45.03125 C18.3404718 46.29408813 18.3528186 47.55692627 18.36553955 48.85803223 C18.34172809 58.35800591 17.42283192 66.3335123 10.7421875 73.49609375 C2.50726775 80.60471281 -7.62270382 80.63303768 -18 80 C-23.6450411 78.98716941 -29.15776469 77.48260786 -33 73 C-33.80994396 68.86028642 -33.16225566 67.27380643 -31 63.625 C-30.34 62.75875 -29.68 61.8925 -29 61 C-26.33591363 61.53281727 -24.24315657 62.34931235 -21.75 63.5 C-16.45515483 65.79669566 -11.88136952 66.30842123 -6.1875 65.375 C-2.94910132 64.24675066 -2.94910132 64.24675066 -1.125 61.875 C0.31529427 58.19424799 0.66635639 54.93699462 1 51 C0.360625 51.474375 -0.27875 51.94875 -0.9375 52.4375 C-6.97118974 55.51591313 -13.36608408 55.55983212 -19.86328125 53.84765625 C-26.03317312 51.40000262 -29.51571601 46.89049945 -32.2734375 41.02734375 C-35.78239885 31.23620966 -35.27809459 18.44960652 -31 9 C-28.06124203 3.42389514 -24.66351924 0.67730001 -19 -2 C-12.04524993 -4.09901914 -6.32787617 -3.53183786 0 0 Z M-15 16 C-17.11104826 22.33314478 -17.19836702 30.96940635 -14.75 37.25 C-12.88397012 40.18233266 -12.15450719 40.81281987 -9 42 C-6.70001288 42.17659456 -6.70001288 42.17659456 -4.375 41.875 C-3.59898437 41.81054688 -2.82296875 41.74609375 -2.0234375 41.6796875 C0.12466445 41.18884231 0.12466445 41.18884231 1.12133789 39.30566406 C2.86763957 34.72325976 2.03537766 29.69931391 1.8125 24.875 C1.78091797 23.76511719 1.74933594 22.65523438 1.71679688 21.51171875 C1.67232422 20.45339844 1.62785156 19.39507812 1.58203125 18.3046875 C1.54311768 17.33515137 1.5042041 16.36561523 1.46411133 15.36669922 C1.31095459 14.58568848 1.15779785 13.80467773 1 13 C-5.3968186 8.73545426 -10.51959351 10.16189458 -15 16 Z " fill="#234D19" transform="translate(480,401)"/>
<path d="M0 0 C4.85867701 0.05568684 7.68697771 0.87290193 11.3125 4.3125 C12.47785351 8.34738473 12.5085181 12.40284268 12.62890625 16.58203125 C12.64968735 17.26303391 12.67046844 17.94403656 12.69187927 18.64567566 C12.75687878 20.80535508 12.81602712 22.96514846 12.875 25.125 C12.9182325 26.59571456 12.96184825 28.06641791 13.00585938 29.53710938 C13.11250859 33.12878717 13.21391349 36.72059082 13.3125 40.3125 C16.69705027 42.16092689 18.22222891 42.46785871 22 41.5 C22.78761719 41.30792969 23.57523438 41.11585938 24.38671875 40.91796875 C26.29944272 40.47971477 26.29944272 40.47971477 27.3125 39.3125 C27.47273562 36.42997355 27.57204029 33.56871473 27.62890625 30.68359375 C27.64968735 29.81936295 27.67046844 28.95513214 27.69187927 28.06471252 C27.75747114 25.29322555 27.81630418 22.52164079 27.875 19.75 C27.91817608 17.87564077 27.96179006 16.00129157 28.00585938 14.12695312 C28.11316227 9.52223664 28.21440215 4.91742142 28.3125 0.3125 C30.08043236 0.26175136 31.84878372 0.22545085 33.6171875 0.1953125 C35.09421143 0.16268311 35.09421143 0.16268311 36.60107422 0.12939453 C40.24061199 0.37517639 41.92699114 1.6089233 44.3125 4.3125 C45.54330509 6.77411017 45.43293977 8.37746993 45.42602539 11.12939453 C45.42594986 12.13028107 45.42587433 13.1311676 45.42579651 14.16238403 C45.42063522 15.24575043 45.41547394 16.32911682 45.41015625 17.4453125 C45.4087413 18.55228485 45.40732635 19.6592572 45.40586853 20.79977417 C45.40025772 24.34570993 45.38770337 27.89158323 45.375 31.4375 C45.36998639 33.83723867 45.36542325 36.23697833 45.36132812 38.63671875 C45.35028478 44.52866725 45.3335361 50.42057916 45.3125 56.3125 C43.04270335 56.42044277 40.77144804 56.49806176 38.5 56.5625 C36.60314453 56.63210938 36.60314453 56.63210938 34.66796875 56.703125 C31.3125 56.3125 31.3125 56.3125 29.36328125 54.296875 C29.01652344 53.64203125 28.66976562 52.9871875 28.3125 52.3125 C27.405 52.951875 26.4975 53.59125 25.5625 54.25 C20.03255507 57.75938813 14.74584413 57.84861201 8.3125 57.3125 C2.90153992 55.71582326 -0.95204424 53.32254669 -3.6875 48.3125 C-6.61217966 39.90404597 -5.958612 30.57652789 -5.89331055 21.80493164 C-5.87481849 19.22467372 -5.87280292 16.64477103 -5.87304688 14.06445312 C-5.8681392 12.4270802 -5.86231419 10.78970972 -5.85546875 9.15234375 C-5.85435593 8.37954575 -5.8532431 7.60674774 -5.85209656 6.81053162 C-5.79224371 0.16450318 -5.79224371 0.16450318 0 0 Z " fill="#254E1B" transform="translate(512.6875,398.6875)"/>
<path d="M0 0 C2.05541781 1.21329517 3.66943365 2.47023741 5.38671875 4.125 C5.9590625 4.66769531 6.53140625 5.21039063 7.12109375 5.76953125 C13.50331403 12.50125407 13.60553798 19.500343 13.5546875 28.4296875 C13.38671875 31.125 13.38671875 31.125 12.38671875 32.125 C10.01103355 32.2133967 7.66463201 32.24030305 5.2890625 32.22265625 C4.22577477 32.22053383 4.22577477 32.22053383 3.14100647 32.21836853 C0.86870163 32.21275443 -1.403506 32.20019963 -3.67578125 32.1875 C-5.21288921 32.18248681 -6.7499987 32.17792359 -8.28710938 32.17382812 C-12.06253767 32.16278042 -15.83789296 32.14550641 -19.61328125 32.125 C-17.95942574 37.53720764 -17.95942574 37.53720764 -14.75390625 42.09375 C-10.53431129 44.12654757 -6.16181961 43.8349238 -1.61328125 43.125 C0.73939761 41.98325879 2.67359533 40.72911555 4.73046875 39.12109375 C5.5503125 38.62802734 5.5503125 38.62802734 6.38671875 38.125 C9.38671875 39.125 9.38671875 39.125 11.13671875 41.75 C12.66638312 45.88009379 12.78131865 47.94120029 11.38671875 52.125 C3.48503118 58.21588417 -5.50575767 58.63635337 -15.171875 57.71875 C-22.1842492 56.50889656 -27.55447817 53.89715028 -32.05078125 48.3125 C-38.03693658 39.12129267 -38.83061752 29.87048938 -37.61328125 19.125 C-35.49939837 11.00552166 -30.79759922 5.37694329 -23.61328125 1.125 C-16.92122639 -2.17356605 -7.06965072 -2.36711773 0 0 Z M-19.61328125 15.125 C-19.94328125 17.105 -20.27328125 19.085 -20.61328125 21.125 C-14.67328125 21.125 -8.73328125 21.125 -2.61328125 21.125 C-3.11965716 15.48859773 -3.11965716 15.48859773 -5.23828125 12.75 C-10.53349194 9.12696111 -15.52553238 10.5563395 -19.61328125 15.125 Z " fill="#28511C" transform="translate(854.61328125,397.875)"/>
<path d="M0 0 C4.609509 3.67069157 8.16700384 8.81819445 9.12890625 14.6953125 C9.22194535 17.08970119 9.25887245 19.48662202 9.25390625 21.8828125 C9.25777344 23.76033203 9.25777344 23.76033203 9.26171875 25.67578125 C9.12890625 28.6953125 9.12890625 28.6953125 8.12890625 29.6953125 C5.75322105 29.7837092 3.40681951 29.81061555 1.03125 29.79296875 C-0.03203773 29.79084633 -0.03203773 29.79084633 -1.11680603 29.78868103 C-3.38911087 29.78306693 -5.6613185 29.77051213 -7.93359375 29.7578125 C-9.47070171 29.75279931 -11.0078112 29.74823609 -12.54492188 29.74414062 C-16.32035017 29.73309292 -20.09570546 29.71581891 -23.87109375 29.6953125 C-22.21693048 35.09664581 -22.21693048 35.09664581 -19.0390625 39.6640625 C-14.540613 41.80386551 -9.70624226 41.3713882 -4.87109375 40.6953125 C-1.59866504 39.37348996 1.25106533 37.73014951 4.12890625 35.6953125 C6.67983321 38.96368766 8.05013625 41.18768358 8.69140625 45.3203125 C8.12890625 48.6953125 8.12890625 48.6953125 5.87890625 51.0078125 C-2.35430766 56.06001194 -10.99899626 56.79849163 -20.5234375 55.26953125 C-28.37891849 53.29658302 -33.23530242 48.9553702 -38.24609375 42.7578125 C-42.82787976 34.12290809 -43.4263897 23.35869305 -40.87109375 13.9453125 C-38.22274282 7.2254314 -33.12852723 1.51454964 -26.74609375 -1.8671875 C-18.02562953 -5.12041768 -8.06791666 -4.65201125 0 0 Z M-23.87109375 13.6953125 C-24.20109375 15.3453125 -24.53109375 16.9953125 -24.87109375 18.6953125 C-18.93109375 18.6953125 -12.99109375 18.6953125 -6.87109375 18.6953125 C-7.37746966 13.05891023 -7.37746966 13.05891023 -9.49609375 10.3203125 C-15.34364569 6.31935591 -19.91231742 8.45575559 -23.87109375 13.6953125 Z " fill="#254F1B" transform="translate(803.87109375,400.3046875)"/>
<path d="M0 0 C1.671875 1.0703125 1.671875 1.0703125 3.671875 3.0703125 C4.23068944 7.16828507 3.8089279 8.83903573 1.671875 12.4453125 C1.011875 13.3115625 0.351875 14.1778125 -0.328125 15.0703125 C-5.078125 13.1953125 -5.078125 13.1953125 -7.328125 12.0703125 C-9.43666536 11.8350393 -9.43666536 11.8350393 -11.765625 11.8203125 C-12.93931641 11.78164063 -12.93931641 11.78164063 -14.13671875 11.7421875 C-16.37665592 11.91069537 -16.37665592 11.91069537 -18.0703125 13.29296875 C-19.64020313 15.51129247 -19.82031147 17.06248575 -20.015625 19.7578125 C-20.08136719 20.56605469 -20.14710938 21.37429688 -20.21484375 22.20703125 C-20.25222656 22.82191406 -20.28960938 23.43679688 -20.328125 24.0703125 C-19.11253906 24.05871094 -17.89695312 24.04710937 -16.64453125 24.03515625 C-15.05989736 24.02577972 -13.47526182 24.01667937 -11.890625 24.0078125 C-11.08818359 23.99943359 -10.28574219 23.99105469 -9.45898438 23.98242188 C-7.41517279 23.9737982 -5.37128598 24.018031 -3.328125 24.0703125 C-2.328125 25.0703125 -2.328125 25.0703125 -2.1953125 27.7578125 C-2.19789063 28.8509375 -2.20046875 29.9440625 -2.203125 31.0703125 C-2.19925781 32.71 -2.19925781 32.71 -2.1953125 34.3828125 C-2.328125 37.0703125 -2.328125 37.0703125 -3.328125 38.0703125 C-8.938125 38.0703125 -14.548125 38.0703125 -20.328125 38.0703125 C-20.328125 51.9303125 -20.328125 65.7903125 -20.328125 80.0703125 C-25.938125 80.0703125 -31.548125 80.0703125 -37.328125 80.0703125 C-38.38651258 76.89514976 -38.46755949 74.60920967 -38.48925781 71.27294922 C-38.49886536 70.08095917 -38.5084729 68.88896912 -38.51837158 67.66085815 C-38.52262146 66.37027496 -38.52687134 65.07969177 -38.53125 63.75 C-38.53700679 62.40821329 -38.54276446 61.06642659 -38.54852295 59.72463989 C-38.55902736 56.90854511 -38.56487265 54.0924788 -38.56835938 51.27636719 C-38.57382153 47.68884211 -38.59780232 44.1017009 -38.62633133 40.51429558 C-38.6450752 37.73968456 -38.65016966 34.96516348 -38.65169525 32.19049454 C-38.6561501 30.23143349 -38.67474531 28.2724208 -38.69366455 26.31344604 C-38.67247323 17.76303209 -37.86270735 11.02127911 -33.203125 3.7578125 C-24.09107742 -4.75997111 -11.01844742 -5.59206918 0 0 Z " fill="#27501C" transform="translate(724.328125,373.9296875)"/>
<path d="M0 0 C9.9540412 -0.62757528 9.9540412 -0.62757528 14.125 1.875 C18.17817694 6.46860053 17.06896221 11.06924984 17 17 C22.28 17 27.56 17 33 17 C33 21.29 33 25.58 33 30 C27.72 30 22.44 30 17 30 C17.14026303 34.45857367 17.28694494 38.91677242 17.4375 43.375 C17.47681641 44.64601563 17.51613281 45.91703125 17.55664062 47.2265625 C17.59853516 48.43828125 17.64042969 49.65 17.68359375 50.8984375 C17.72025146 52.01911621 17.75690918 53.13979492 17.79467773 54.29443359 C17.82596013 56.96712771 17.82596013 56.96712771 19 59 C24.26053037 59.31563182 27.44573816 58.66590937 32 56 C34.82241489 59.19055597 35.91253195 61.71406558 36 66 C33.90430367 69.75478926 31.30673046 71.9624127 27.2578125 73.49609375 C21.06365224 74.87852744 14.5313565 74.8136503 8.5 72.875 C4.29321962 69.71991471 0.92832063 66.35048342 0 61 C-0.11843139 59.05608185 -0.18621207 57.10882941 -0.22119141 55.16162109 C-0.24436432 53.98715424 -0.26753723 52.81268738 -0.29141235 51.60263062 C-0.3112619 50.33899689 -0.33111145 49.07536316 -0.3515625 47.7734375 C-0.37471527 46.47427399 -0.39786804 45.17511047 -0.42172241 43.83657837 C-0.47008324 41.09128924 -0.51503068 38.34597052 -0.55761719 35.60058594 C-0.61256116 32.07856488 -0.67638581 28.55676968 -0.74279213 25.03494835 C-0.80482364 21.6770231 -0.85908262 18.31898568 -0.9140625 14.9609375 C-0.93796051 13.69325531 -0.96185852 12.42557312 -0.98648071 11.11947632 C-1.0033493 9.95131378 -1.0202179 8.78315125 -1.03759766 7.57958984 C-1.05456696 6.54796722 -1.07153625 5.5163446 -1.08901978 4.45346069 C-1 2 -1 2 0 0 Z " fill="#224C18" transform="translate(620,382)"/>
<path d="M0 0 C1.89294235 -0.16302853 3.78998395 -0.27886529 5.6875 -0.375 C7.27111328 -0.47941406 7.27111328 -0.47941406 8.88671875 -0.5859375 C12.45182204 0.08503552 13.93704559 1.28065623 16.07063866 4.20604324 C17.65662327 7.26748736 17.65518973 10.30119097 17.56762695 13.65771484 C17.56835709 14.39986237 17.56908722 15.14200989 17.56983948 15.90664673 C17.5663759 18.34217264 17.52757753 20.77574877 17.48828125 23.2109375 C17.47894864 24.90629024 17.47183464 26.60165651 17.46684265 28.29702759 C17.44780786 32.74596792 17.39873825 37.19408411 17.34332275 41.6427002 C17.29205376 46.18746799 17.26931234 50.73236975 17.24414062 55.27734375 C17.19061542 64.18525671 17.10534593 73.09255966 17 82 C13.80876226 83.59561887 10.47254909 83.3799142 7 83 C3.41447119 81.36312815 2.20684945 80.31027417 0 77 C-0.18365409 74.49233291 -0.25246496 72.09772507 -0.22705078 69.59106445 C-0.22734283 68.83960144 -0.22763489 68.08813843 -0.22793579 67.31390381 C-0.22654253 64.83024547 -0.21098166 62.34688718 -0.1953125 59.86328125 C-0.19158235 58.14121159 -0.18873539 56.4191398 -0.18673706 54.69706726 C-0.17910073 50.16456238 -0.15945225 45.63218568 -0.1373291 41.09973145 C-0.11687067 36.47470839 -0.10773535 31.84966463 -0.09765625 27.22460938 C-0.07620635 18.14968327 -0.0420704 9.07485229 0 0 Z " fill="#214B17" transform="translate(594,373)"/>
<path d="M0 0 C2.26894316 3.15679048 2.02231298 6.31635041 1.4375 10 C0.61956981 12.48650778 -0.38625635 14.6475127 -1.5625 17 C-2.0575 16.855625 -2.5525 16.71125 -3.0625 16.5625 C-9.83223116 15.01103178 -9.83223116 15.01103178 -16.5625 16 C-18.19907754 19.27315509 -17.8055807 22.90622231 -17.87890625 26.5078125 C-17.89968735 27.34843231 -17.92046844 28.18905212 -17.94187927 29.05514526 C-18.00735439 31.74501235 -18.0662502 34.43497843 -18.125 37.125 C-18.16818716 38.94662489 -18.21180152 40.76823971 -18.25585938 42.58984375 C-18.36383907 47.05979577 -18.46292729 51.52982108 -18.5625 56 C-24.1725 56 -29.7825 56 -35.5625 56 C-35.58713956 48.18546786 -35.60533105 40.37095812 -35.61743164 32.55639648 C-35.62247383 29.89558519 -35.62930736 27.23477668 -35.63793945 24.57397461 C-35.65001009 20.75894484 -35.65572929 16.94395156 -35.66015625 13.12890625 C-35.66531754 11.93100967 -35.67047882 10.7331131 -35.67579651 9.49891663 C-35.67587204 8.3978508 -35.67594757 7.29678497 -35.67602539 6.16235352 C-35.678246 5.18750504 -35.68046661 4.21265656 -35.68275452 3.20826721 C-35.5625 1 -35.5625 1 -34.5625 0 C-29.6862913 -0.24381044 -25.9711949 -0.33401495 -21.5625 2 C-20.9025 2.66 -20.2425 3.32 -19.5625 4 C-18.799375 3.360625 -18.03625 2.72125 -17.25 2.0625 C-12.24543469 -1.77821291 -5.86277771 -2.28791325 0 0 Z " fill="#224C18" transform="translate(760.5625,398)"/>
<path d="M0 0 C4.210482 0.02734079 5.38344405 0.10374859 8.875 2.6875 C11.39033129 6.29280819 11.87477357 8.83626921 11.86352539 13.12182617 C11.86344986 14.08259567 11.86337433 15.04336517 11.86329651 16.0332489 C11.85813522 17.06770645 11.85297394 18.102164 11.84765625 19.16796875 C11.8462413 20.22913406 11.84482635 21.29029938 11.84336853 22.38362122 C11.83776606 25.77660935 11.82521314 29.16953177 11.8125 32.5625 C11.80748532 34.86132717 11.80292236 37.16015538 11.79882812 39.45898438 C11.78779583 45.09767872 11.7710553 50.73633466 11.75 56.375 C8.297912 58.101044 4.53158433 57.73483934 0.75 57.375 C-2.54053501 56.04478372 -3.81925484 55.26586804 -5.36372375 52.07159424 C-6.26269908 49.33636163 -6.49779 47.28294081 -6.49291992 44.41699219 C-6.49599655 43.45960144 -6.49907318 42.50221069 -6.50224304 41.51580811 C-6.49505753 40.49481018 -6.48787201 39.47381226 -6.48046875 38.421875 C-6.48001053 37.36591125 -6.47955231 36.30994751 -6.4790802 35.22198486 C-6.47606493 32.99628573 -6.46820039 30.77058857 -6.45581055 28.54492188 C-6.43749263 25.12362267 -6.43530137 21.70259324 -6.43554688 18.28125 C-6.43063383 16.11978931 -6.42480644 13.95833046 -6.41796875 11.796875 C-6.41685593 10.76778015 -6.4157431 9.7386853 -6.41459656 8.67840576 C-6.40821671 7.73362366 -6.40183685 6.78884155 -6.39526367 5.81542969 C-6.39145187 4.98001648 -6.38764008 4.14460327 -6.38371277 3.28387451 C-6.10912158 -0.63617081 -3.35954988 0.1167758 0 0 Z " fill="#2E5521" transform="translate(573.25,398.625)"/>
<path d="M0 0 C2.91963173 1.98783437 4.61102978 3.4314697 5.48046875 6.9375 C5.75539772 10.86081066 5.21963243 12.67055136 3 16 C-0.32944864 18.21963243 -2.13918934 18.75539772 -6.0625 18.48046875 C-9.5685303 17.61102978 -11.01216563 15.91963173 -13 13 C-13.69151325 8.69725091 -13.51557405 6.79054688 -11.125 3.125 C-7.55800211 -0.44199789 -4.99020234 -0.5074782 0 0 Z " fill="#254F1C" transform="translate(579,373)"/>
<path d="M0 0 C0.99 0 1.98 0 3 0 C2.67 47.19 2.34 94.38 2 143 C1.67 143 1.34 143 1 143 C0.67 95.81 0.34 48.62 0 0 Z " fill="#2B5321" transform="translate(606,483)"/>
<path d="M0 0 C0.99 0 1.98 0 3 0 C2.67 3.63 2.34 7.26 2 11 C1.67 11 1.34 11 1 11 C0.67 7.37 0.34 3.74 0 0 Z " fill="#3D6338" transform="translate(606,483)"/>
</svg>
