<?xml version="1.0" encoding="UTF-8"?>
<svg version="1.1" xmlns="http://www.w3.org/2000/svg" width="128" height="128">
<path d="M0 0 C1.4299379 -0.0129007 1.4299379 -0.0129007 2.88876343 -0.02606201 C3.9381308 -0.03032196 4.98749817 -0.03458191 6.06866455 -0.03897095 C7.72250656 -0.05123718 7.72250656 -0.05123718 9.40975952 -0.06375122 C13.07112072 -0.08863423 16.73244307 -0.10512867 20.39385986 -0.11953735 C22.26644344 -0.12752287 22.26644344 -0.12752287 24.17685699 -0.13566971 C29.42344196 -0.15690551 34.67002107 -0.17603507 39.91663742 -0.1872921 C47.43180983 -0.2035231 54.94646452 -0.23667785 62.46144176 -0.29369295 C68.38489564 -0.33709802 74.30823428 -0.35304084 80.23184967 -0.35942459 C82.75007054 -0.3661492 85.26828353 -0.38140237 87.78639984 -0.4053154 C91.31057711 -0.43687289 94.83344604 -0.43701704 98.35772705 -0.42959595 C99.91963272 -0.45420395 99.91963272 -0.45420395 101.51309204 -0.47930908 C106.11686098 -0.43960609 109.42867825 -0.3974201 113.10412598 2.56536865 C116.81122207 6.61794757 116.63491891 9.54140005 116.66485596 14.81307983 C116.67712219 15.99875046 116.67712219 15.99875046 116.68963623 17.20837402 C116.71449893 19.83083333 116.73100949 22.45323843 116.74542236 25.07577515 C116.75074604 25.97112221 116.75606972 26.86646927 116.76155472 27.78894806 C116.78829163 32.52907963 116.80766375 37.26918484 116.82208252 42.0093689 C116.83872105 46.90332879 116.88349035 51.79661405 116.93445396 56.69031906 C116.96812908 60.4547502 116.97966029 64.21902137 116.9853096 67.98358917 C116.99202264 69.78730671 117.00724614 71.5910137 117.03120041 73.39458466 C117.06285813 75.92266067 117.06288826 78.44891973 117.05548096 80.97714233 C117.07188629 81.71918915 117.08829163 82.46123596 117.10519409 83.22576904 C117.0365615 88.96257259 115.40222843 91.2799545 111.47198486 95.15390015 C109.086906 96.34643958 107.60681109 96.28994535 104.94396973 96.30780029 C103.51403183 96.32070099 103.51403183 96.32070099 102.0552063 96.3338623 C100.48115524 96.34025223 100.48115524 96.34025223 98.87530518 96.34677124 C97.22146317 96.35903748 97.22146317 96.35903748 95.53421021 96.37155151 C91.87284901 96.39643452 88.21152665 96.41292896 84.55010986 96.42733765 C83.30172081 96.43266132 82.05333176 96.437985 80.76711273 96.44347 C75.52052777 96.4647058 70.27394866 96.48383536 65.02733231 96.49509239 C57.5121599 96.51132339 49.99750521 96.54447815 42.48252797 96.60149324 C36.55907409 96.64489831 30.63573544 96.66084113 24.71212006 96.66722488 C22.19389918 96.67394949 19.6756862 96.68920267 17.15756989 96.71311569 C13.63339261 96.74467319 10.11052368 96.74481733 6.58624268 96.73739624 C5.54497223 96.75380157 4.50370178 96.77020691 3.43087769 96.78710938 C-1.17289125 96.74740638 -4.48470852 96.7052204 -8.16015625 93.74243164 C-11.86725235 89.68985273 -11.69094919 86.76640024 -11.72088623 81.49472046 C-11.72906372 80.70427338 -11.73724121 79.91382629 -11.7456665 79.09942627 C-11.77052921 76.47696696 -11.78703977 73.85456186 -11.80145264 71.23202515 C-11.80677631 70.33667809 -11.81209999 69.44133102 -11.81758499 68.51885223 C-11.8443219 63.77872066 -11.86369402 59.03861546 -11.87811279 54.2984314 C-11.89475132 49.4044715 -11.93952063 44.51118624 -11.99048424 39.61748123 C-12.02415935 35.85305009 -12.03569056 32.08877892 -12.04133987 28.32421112 C-12.04805291 26.52049359 -12.06327641 24.7167866 -12.08723068 22.91321564 C-12.11888841 20.38513962 -12.11891854 17.85888056 -12.11151123 15.33065796 C-12.12791656 14.58861115 -12.1443219 13.84656433 -12.16122437 13.08203125 C-12.09259178 7.3452277 -10.4582587 5.02784579 -6.52801514 1.15390015 C-4.14293627 -0.03863929 -2.66284136 0.01785495 0 0 Z M16.47198486 8.15390015 C20.6065912 12.30947337 20.6065912 12.30947337 24.96807861 16.09921265 C25.60294189 16.61395142 26.23780518 17.12869019 26.89190674 17.6590271 C27.55770752 18.19358521 28.2235083 18.72814331 28.90948486 19.27890015 C29.9487915 20.11844238 29.9487915 20.11844238 31.00909424 20.97494507 C37.78012648 26.43135583 44.61428014 31.8070335 51.47198486 37.15390015 C55.39163836 35.46175705 58.54458442 32.86621945 61.84698486 30.21640015 C63.0928999 29.22529003 64.3389992 28.23441151 65.58526611 27.2437439 C66.54360352 26.47973267 66.54360352 26.47973267 67.52130127 25.70028687 C69.44721118 24.17353926 71.38468223 22.66302112 73.32745361 21.1578064 C73.94894287 20.67497192 74.57043213 20.19213745 75.21075439 19.69467163 C76.39351769 18.77648631 77.5779891 17.86049546 78.76446533 16.94711304 C82.30519406 14.18698026 85.25953851 11.3663465 88.47198486 8.15390015 C64.71198486 8.15390015 40.95198486 8.15390015 16.47198486 8.15390015 Z M4.47198486 22.15390015 C4.47198486 43.93390015 4.47198486 65.71390015 4.47198486 88.15390015 C36.15198486 88.15390015 67.83198486 88.15390015 100.47198486 88.15390015 C100.47198486 66.37390015 100.47198486 44.59390015 100.47198486 22.15390015 C97.83198486 24.13390015 95.19198486 26.11390015 92.47198486 28.15390015 C91.49874268 28.8809314 90.52550049 29.60796265 89.52276611 30.35702515 C84.33405089 34.23560828 79.1680442 38.1402464 74.03448486 42.09140015 C73.23470215 42.70459106 73.23470215 42.70459106 72.41876221 43.33016968 C69.55669615 45.52891692 66.71750642 47.75164877 63.90167236 50.0093689 C63.31700195 50.47286743 62.73233154 50.93636597 62.12994385 51.41390991 C61.00854357 52.3036146 59.89311705 53.20091736 58.784729 54.10678101 C55.62810685 56.59684342 54.66560336 57.15390015 50.47198486 57.15390015 C48.20249606 55.59751017 46.14116448 54.03209247 44.03448486 52.27890015 C42.77723224 51.26128096 41.5194071 50.24436874 40.26104736 49.2281189 C39.62715088 48.71168823 38.99325439 48.19525757 38.34014893 47.66317749 C35.56745779 45.42313873 32.7420801 43.2548511 29.90948486 41.09140015 C28.84423372 40.27518568 27.77912992 39.45877889 26.71417236 38.6421814 C26.18533447 38.23693237 25.65649658 37.83168335 25.1116333 37.41415405 C23.39728959 36.09648844 21.68805919 34.77240799 19.97979736 33.4468689 C19.40302246 33.00028931 18.82624756 32.55370972 18.23199463 32.09359741 C16.63533878 30.85701007 15.03994698 29.6187911 13.44464111 28.38046265 C10.53086967 26.19800571 7.50105734 24.1732818 4.47198486 22.15390015 Z " fill="#000000" transform="translate(11.52801513671875,15.846099853515625)"/>
</svg>
